<svg width="164" height="62" viewBox="0 0 164 62" fill="none" xmlns="http://www.w3.org/2000/svg">
<rect x="0.5" y="2" width="52" height="52" rx="9.77444" fill="#282828"/>
<g clip-path="url(#clip0_1546_886)">
<path d="M29.9124 10.2109V17.7115C32.1162 18.4679 34.029 19.8932 35.3842 21.7885C36.7393 23.6838 37.4693 25.9547 37.4724 28.2847C37.4705 30.6156 36.741 32.8877 35.3857 34.7841C34.0305 36.6805 32.117 38.1066 29.9124 38.8633V46.3639C34.0871 45.5198 37.8418 43.2591 40.541 39.9645C43.2403 36.6699 44.7182 32.5438 44.7246 28.2847C44.719 24.026 43.2412 19.9001 40.5418 16.6062C37.8423 13.3123 34.0871 11.053 29.9124 10.2109ZM7.84265 28.2847C7.84854 32.5456 9.32762 36.6734 12.0292 39.9684C14.7307 43.2634 18.4885 45.5229 22.6656 46.3639V38.8633C20.461 38.1066 18.5476 36.6805 17.1923 34.7841C15.837 32.8877 15.1076 30.6156 15.1056 28.2847C15.1087 25.9547 15.8387 23.6838 17.1939 21.7885C18.5491 19.8932 20.4619 18.4679 22.6656 17.7115V10.2109C18.4885 11.0498 14.7302 13.308 12.0284 16.6023C9.32665 19.8966 7.84775 24.0242 7.84265 28.2847Z" fill="#CCFD04"/>
<path d="M29.9125 17.7108V28.5108C29.9125 29.4718 29.5307 30.3934 28.8512 31.0729C28.1717 31.7524 27.2501 32.1342 26.2891 32.1342C25.3281 32.1342 24.4065 31.7524 23.727 31.0729C23.0475 30.3934 22.6657 29.4718 22.6657 28.5108V17.7108C23.8303 17.304 25.0555 17.0977 26.2891 17.1006C27.5227 17.0977 28.7479 17.304 29.9125 17.7108Z" fill="#CCFD04"/>
</g>
<g filter="url(#filter0_d_1546_886)">
<path d="M63.8568 24.583V4.10196H70.8339C73.544 4.10196 75.7572 4.94595 77.4733 6.63395C79.1988 8.32195 80.0616 10.6805 80.0616 13.7095V14.9473C80.0616 17.9764 79.1988 20.3396 77.4733 22.0369C75.7572 23.7343 73.544 24.583 70.8339 24.583H63.8568ZM68.33 21.2914H70.6229C72.0952 21.2914 73.2674 20.785 74.1395 19.7722C75.0117 18.75 75.4477 17.2402 75.4477 15.2427V13.4563C75.4477 11.4494 75.007 9.949 74.1255 8.95495C73.2439 7.95153 72.0764 7.44982 70.6229 7.44982H68.33V21.2914ZM82.1857 20.4333C82.1857 18.9048 82.7811 17.7372 83.9721 16.9307C85.1631 16.1149 86.6917 15.7069 88.5578 15.7069H91.5822V14.877C91.5822 14.2393 91.4181 13.7329 91.0898 13.3578C90.771 12.9827 90.2177 12.7951 89.43 12.7951C88.6516 12.7951 88.0843 12.9546 87.7279 13.2734C87.3809 13.5829 87.2074 13.9814 87.2074 14.4691V14.7223L83.0015 14.7082V14.455C83.0015 13.1515 83.6111 12.0871 84.8302 11.2619C86.0493 10.4273 87.6623 10.01 89.6691 10.01C91.6947 10.01 93.2514 10.4085 94.3392 11.2056C95.4271 12.0027 95.971 13.2547 95.971 14.9614V21.3758C95.971 21.9572 96.0226 22.5105 96.1257 23.0357C96.2289 23.5515 96.3742 23.9969 96.5618 24.372V24.583H92.2433C92.1214 24.3579 92.0136 24.0766 91.9198 23.739C91.8354 23.4014 91.7791 23.0638 91.751 22.7262C91.4509 23.2701 90.8976 23.7578 90.0911 24.1891C89.294 24.6111 88.2953 24.8221 87.0949 24.8221C85.6601 24.8221 84.4832 24.4564 83.5642 23.7249C82.6452 22.9935 82.1857 21.8963 82.1857 20.4333ZM86.5604 20.0817C86.5604 20.6912 86.7339 21.1742 87.0808 21.5305C87.4372 21.8869 87.9858 22.0651 88.7266 22.0651C89.5144 22.0651 90.1849 21.8072 90.7382 21.2914C91.3008 20.7663 91.5822 20.152 91.5822 19.4487V18.1827H89.4722C88.4875 18.1827 87.756 18.3421 87.2778 18.6609C86.7995 18.9704 86.5604 19.444 86.5604 20.0817ZM99.2485 24.583V3.39862H103.637V15.3834L108.195 10.3898H113.104L103.637 20.3771V24.583H99.2485ZM108.575 24.583L103.792 17.9295L106.563 14.8629L113.751 24.583H108.575ZM114.314 20.4333C114.314 18.9048 114.909 17.7372 116.1 16.9307C117.291 16.1149 118.82 15.7069 120.686 15.7069H123.71V14.877C123.71 14.2393 123.546 13.7329 123.218 13.3578C122.899 12.9827 122.346 12.7951 121.558 12.7951C120.78 12.7951 120.213 12.9546 119.856 13.2734C119.509 13.5829 119.336 13.9814 119.336 14.4691V14.7223L115.13 14.7082V14.455C115.13 13.1515 115.739 12.0871 116.958 11.2619C118.178 10.4273 119.791 10.01 121.797 10.01C123.823 10.01 125.38 10.4085 126.467 11.2056C127.555 12.0027 128.099 13.2547 128.099 14.9614V21.3758C128.099 21.9572 128.151 22.5105 128.254 23.0357C128.357 23.5515 128.502 23.9969 128.69 24.372V24.583H124.372C124.25 24.3579 124.142 24.0766 124.048 23.739C123.964 23.4014 123.907 23.0638 123.879 22.7262C123.579 23.2701 123.026 23.7578 122.219 24.1891C121.422 24.6111 120.424 24.8221 119.223 24.8221C117.788 24.8221 116.611 24.4564 115.692 23.7249C114.773 22.9935 114.314 21.8963 114.314 20.4333ZM118.689 20.0817C118.689 20.6912 118.862 21.1742 119.209 21.5305C119.565 21.8869 120.114 22.0651 120.855 22.0651C121.643 22.0651 122.313 21.8072 122.866 21.2914C123.429 20.7663 123.71 20.152 123.71 19.4487V18.1827H121.6C120.616 18.1827 119.884 18.3421 119.406 18.6609C118.928 18.9704 118.689 19.444 118.689 20.0817ZM62.9003 47.886V47.253H67.3313V47.7172C67.3313 48.7113 67.6314 49.4568 68.2315 49.9538C68.8317 50.4415 69.671 50.6853 70.7495 50.6853C71.8091 50.6853 72.6203 50.4555 73.183 49.996C73.755 49.5365 74.0411 48.9269 74.0411 48.1673C74.0411 47.4265 73.755 46.8404 73.183 46.409C72.6109 45.9776 71.4153 45.5087 69.596 45.0023C67.4579 44.4022 65.8543 43.6097 64.7852 42.6251C63.7255 41.6404 63.1957 40.3182 63.1957 38.6583C63.1957 36.8484 63.8662 35.4089 65.2072 34.3398C66.5482 33.2708 68.3488 32.7362 70.6088 32.7362C72.8595 32.7362 74.6694 33.2661 76.0385 34.3258C77.4077 35.3854 78.0923 36.8296 78.0923 38.6583V39.2069H73.7316V38.8271C73.7316 37.9831 73.469 37.3126 72.9439 36.8156C72.4281 36.3092 71.6638 36.056 70.651 36.056C69.6194 36.056 68.8645 36.2623 68.3863 36.6749C67.908 37.0781 67.6689 37.622 67.6689 38.3066C67.6689 38.9724 67.9549 39.4929 68.5269 39.868C69.099 40.2338 70.304 40.6745 72.1421 41.1903C74.2239 41.7717 75.8041 42.5688 76.8825 43.5816C77.961 44.585 78.5049 45.9917 78.5143 47.8016C78.5143 49.7428 77.8062 51.2526 76.3902 52.3311C74.9741 53.4095 73.1033 53.9487 70.7776 53.9487C68.4613 53.9487 66.567 53.433 65.0947 52.4014C63.6317 51.3699 62.9003 49.8647 62.9003 47.886ZM80.3289 46.6903V46.2402C80.3289 44.0458 81.0041 42.2875 82.3545 40.9652C83.7142 39.643 85.4773 38.9818 87.6435 38.9818C89.8098 38.9818 91.4978 39.6101 92.7075 40.8667C93.9172 42.114 94.5221 43.8348 94.5221 46.0292V47.4499H83.0719V44.932H90.2177V44.6929C90.2177 43.9614 89.9973 43.3472 89.5566 42.8501C89.1158 42.3437 88.4734 42.0905 87.6295 42.0905C86.6729 42.0905 85.9461 42.4422 85.4491 43.1455C84.9521 43.8489 84.7036 44.7726 84.7036 45.9167V46.8451C84.7036 48.0736 84.9709 49.0442 85.5054 49.7569C86.0493 50.4602 86.837 50.8119 87.8686 50.8119C88.6 50.8119 89.2237 50.6431 89.7394 50.3055C90.2646 49.9585 90.6819 49.5412 90.9914 49.0535L94.3111 50.6712C93.861 51.6653 93.0873 52.4671 91.9901 53.0766C90.9023 53.6768 89.5472 53.9769 87.9248 53.9769C85.5429 53.9769 83.6814 53.3157 82.3404 51.9935C80.9994 50.6712 80.3289 48.9035 80.3289 46.6903ZM96.8572 53.583V39.4038H101.133L101.204 41.0777H101.26C101.579 40.5151 102.01 40.0368 102.554 39.643C103.098 39.2491 103.717 39.0522 104.411 39.0522C104.636 39.0522 104.856 39.0756 105.072 39.1225C105.288 39.16 105.438 39.1975 105.522 39.235V42.822C105.363 42.7657 105.175 42.7282 104.96 42.7095C104.753 42.6813 104.524 42.6673 104.27 42.6673C103.642 42.6673 103.056 42.8595 102.512 43.244C101.977 43.6191 101.574 44.1115 101.302 44.721V53.583H96.8572ZM105.916 39.4038H110.305L113.132 47.5062C113.245 47.8157 113.334 48.1064 113.4 48.3783C113.465 48.6503 113.517 48.8941 113.554 49.1098H113.625C113.662 48.8941 113.714 48.655 113.779 48.3924C113.854 48.1205 113.939 47.8251 114.033 47.5062L116.902 39.4038H120.855L115.439 53.583H111.374L105.916 39.4038ZM122.332 53.583V39.4038H126.763V53.583H122.332ZM122.022 35.1276C122.022 34.4805 122.238 33.9366 122.669 33.4958C123.11 33.0457 123.739 32.8206 124.554 32.8206C125.37 32.8206 125.994 33.041 126.425 33.4818C126.866 33.9225 127.086 34.4711 127.086 35.1276C127.086 35.784 126.866 36.3373 126.425 36.7874C125.985 37.2376 125.356 37.4626 124.54 37.4626C123.724 37.4626 123.101 37.2376 122.669 36.7874C122.238 36.3373 122.022 35.784 122.022 35.1276ZM129.281 46.7044V46.2402C129.281 43.9989 129.951 42.2312 131.292 40.9371C132.643 39.6336 134.434 38.9818 136.666 38.9818C138.823 38.9818 140.473 39.4929 141.617 40.5151C142.761 41.5279 143.376 42.8173 143.46 44.3834L143.474 44.6507H139.198V44.4678C139.198 43.7926 138.987 43.244 138.565 42.822C138.152 42.3906 137.533 42.1749 136.708 42.1749C135.742 42.1749 135.006 42.5172 134.5 43.2018C134.003 43.8864 133.754 44.8335 133.754 46.0433V46.9013C133.754 48.1017 133.998 49.0535 134.485 49.7569C134.973 50.4508 135.709 50.7978 136.694 50.7978C137.594 50.7978 138.237 50.5774 138.621 50.1367C139.015 49.6865 139.212 49.1379 139.212 48.4909V48.3221H143.474L143.46 48.5471C143.451 50.0945 142.86 51.3886 141.688 52.4295C140.515 53.4611 138.846 53.9769 136.68 53.9769C134.448 53.9769 132.657 53.3251 131.306 52.0216C129.956 50.7087 129.281 48.9363 129.281 46.7044ZM144.951 46.6903V46.2402C144.951 44.0458 145.626 42.2875 146.977 40.9652C148.336 39.643 150.099 38.9818 152.266 38.9818C154.432 38.9818 156.12 39.6101 157.33 40.8667C158.539 42.114 159.144 43.8348 159.144 46.0292V47.4499H147.694V44.932H154.84V44.6929C154.84 43.9614 154.62 43.3472 154.179 42.8501C153.738 42.3437 153.096 42.0905 152.252 42.0905C151.295 42.0905 150.568 42.4422 150.071 43.1455C149.574 43.8489 149.326 44.7726 149.326 45.9167V46.8451C149.326 48.0736 149.593 49.0442 150.128 49.7569C150.672 50.4602 151.459 50.8119 152.491 50.8119C153.222 50.8119 153.846 50.6431 154.362 50.3055C154.887 49.9585 155.304 49.5412 155.614 49.0535L158.933 50.6712C158.483 51.6653 157.71 52.4671 156.612 53.0766C155.525 53.6768 154.169 53.9769 152.547 53.9769C150.165 53.9769 148.304 53.3157 146.963 51.9935C145.622 50.6712 144.951 48.9035 144.951 46.6903Z" fill="white"/>
</g>
<defs>
<filter id="filter0_d_1546_886" x="58.9003" y="3.39844" width="104.244" height="58.5781" filterUnits="userSpaceOnUse" color-interpolation-filters="sRGB">
<feFlood flood-opacity="0" result="BackgroundImageFix"/>
<feColorMatrix in="SourceAlpha" type="matrix" values="0 0 0 0 0 0 0 0 0 0 0 0 0 0 0 0 0 0 127 0" result="hardAlpha"/>
<feOffset dy="4"/>
<feGaussianBlur stdDeviation="2"/>
<feComposite in2="hardAlpha" operator="out"/>
<feColorMatrix type="matrix" values="0 0 0 0 0 0 0 0 0 0 0 0 0 0 0 0 0 0 0.25 0"/>
<feBlend mode="normal" in2="BackgroundImageFix" result="effect1_dropShadow_1546_886"/>
<feBlend mode="normal" in="SourceGraphic" in2="effect1_dropShadow_1546_886" result="shape"/>
</filter>
<clipPath id="clip0_1546_886">
<rect width="36.8711" height="36.1529" fill="white" transform="translate(7.85352 10.2109)"/>
</clipPath>
</defs>
</svg>
