<svg width="18" height="20" viewBox="0 0 18 20" fill="none" xmlns="http://www.w3.org/2000/svg">
<path fill-rule="evenodd" clip-rule="evenodd" d="M2.56669 9.69158C2.43253 10.0154 2.40696 10.1808 2.40696 10.2206V17.0361C2.40696 17.5055 2.78728 17.8863 3.2587 17.8863H5.8139V12.7759C5.8139 11.8351 6.57657 11.0724 7.51737 11.0724H10.9243C11.8651 11.0724 12.6278 11.8351 12.6278 12.7759V17.8863H15.183C15.6544 17.8863 16.0347 17.5055 16.0347 17.0361V10.2206C16.0347 10.1808 16.0092 10.0154 15.875 9.69158C15.7504 9.39076 15.5614 9.02192 15.3148 8.60446C14.8222 7.77089 14.1311 6.79667 13.3575 5.86844C12.5822 4.93808 11.7453 4.07937 10.9671 3.46174C10.5781 3.15299 10.2205 2.91794 9.90691 2.7632C9.58628 2.60496 9.36061 2.55503 9.22084 2.55503C9.08107 2.55503 8.85541 2.60496 8.53477 2.7632C8.22121 2.91794 7.86363 3.15299 7.4746 3.46174C6.69638 4.07937 5.85945 4.93808 5.08415 5.86844C4.31063 6.79667 3.6195 7.77089 3.12693 8.60446C2.88026 9.02192 2.69131 9.39076 2.56669 9.69158ZM7.7809 1.23562C8.22882 1.01457 8.72181 0.851562 9.22084 0.851562C9.71988 0.851562 10.2129 1.01457 10.6608 1.23562C11.1158 1.46016 11.5767 1.77076 12.0261 2.12743C12.9247 2.84063 13.8445 3.79186 14.6662 4.7779C15.4897 5.76608 16.2358 6.81473 16.7813 7.73786C17.0537 8.19875 17.2839 8.64173 17.4488 9.03959C17.6041 9.41446 17.7382 9.8346 17.7382 10.2206V17.0361C17.7382 18.4483 16.5932 19.5897 15.183 19.5897H12.6278C11.687 19.5897 10.9243 18.8271 10.9243 17.8863V12.7759H7.51737V17.8863C7.51737 18.8271 6.7547 19.5897 5.8139 19.5897H3.2587C1.84851 19.5897 0.703491 18.4483 0.703491 17.0361V10.2206C0.703491 9.8346 0.837623 9.41446 0.992924 9.03959C1.15775 8.64173 1.38802 8.19875 1.66037 7.73786C2.20586 6.81473 2.95203 5.76608 3.77551 4.7779C4.59722 3.79186 5.51699 2.84063 6.41562 2.12743C6.86502 1.77076 7.32591 1.46016 7.7809 1.23562Z" fill="#0F0F0F"/>
</svg>
