<svg width="375" height="240" viewBox="0 0 375 240" fill="none" xmlns="http://www.w3.org/2000/svg">
<g clip-path="url(#clip0_215_4806)">
<path d="M64 72C64 60.9543 72.9543 52 84 52H256C267.046 52 276 60.9543 276 72V80.5C276 90.165 283.835 98 293.5 98C303.165 98 311 105.835 311 115.5V168C311 179.046 302.046 188 291 188H170C161.163 188 154 180.837 154 172C154 163.163 146.837 156 138 156H84C72.9543 156 64 147.046 64 136V72Z" fill="#F3EFEC"/>
<path fill-rule="evenodd" clip-rule="evenodd" d="M269.267 105.086C269.529 105.347 269.737 105.657 269.879 105.999L269.879 105.999C270.166 106.688 270.167 107.463 269.882 108.154C269.598 108.844 269.051 109.394 268.361 109.681L263.604 111.661C264.242 111.45 264.936 111.473 265.561 111.731C266.251 112.016 266.8 112.563 267.087 113.252C267.374 113.942 267.376 114.717 267.091 115.407C266.807 116.098 266.259 116.647 265.57 116.934L241.849 126.808L241.847 126.804L239.011 127.984C237.639 128.556 236.167 128.851 234.68 128.854C233.193 128.856 231.72 128.566 230.346 127.999C228.971 127.433 227.722 126.601 226.668 125.551C225.903 124.789 225.252 123.922 224.734 122.978L224.699 123.046L224.365 122.243C224.31 122.124 224.258 122.004 224.208 121.883C224.148 121.742 224.092 121.601 224.039 121.459L224.012 121.394C223.324 119.67 223.061 117.805 223.245 115.957C223.429 114.109 224.054 112.333 225.068 110.777L231.725 99.9895C232.453 98.8108 233.357 97.7511 234.407 96.8477L244.024 88.5717C246.897 92.3026 242.296 97.6561 242.296 97.6561L242.278 97.6904L242.839 97.9694L244.799 101.185L244.906 101.141C245.219 101.517 245.655 101.795 246.17 101.908C247.405 102.18 248.625 101.399 248.896 100.165C248.948 99.9274 248.962 99.6909 248.941 99.4614L259.381 95.1153C260.071 94.8283 260.846 94.8269 261.536 95.1115C262.227 95.3961 262.776 95.9433 263.063 96.6328C263.35 97.3222 263.351 98.0975 263.067 98.7879C262.782 99.4784 262.235 100.028 261.546 100.315L247.65 106.099L247.651 106.102L266.538 98.24C267.228 97.953 268.003 97.9516 268.693 98.2362C269.384 98.5208 269.933 99.068 270.22 99.7574C270.507 100.447 270.508 101.222 270.224 101.913C269.939 102.603 269.392 103.152 268.703 103.439L266.261 104.455C266.584 104.33 266.927 104.266 267.274 104.265C267.644 104.264 268.01 104.337 268.352 104.478C268.694 104.618 269.005 104.825 269.267 105.086Z" fill="#FFC2B0"/>
<path d="M194.143 86.8989L145.944 86.9544L135.339 114.392L140.295 178.327H203.307C204.524 178.312 205.686 177.82 206.544 176.955C207.401 176.091 207.884 174.925 207.889 173.707L207.883 99.9112C206.468 92.3662 201.82 86.8989 194.143 86.8989Z" fill="#FF7D57"/>
<path d="M184.18 83.4933C174.148 83.4933 166.015 75.3603 166.015 65.3276C166.015 55.295 174.148 47.1617 184.18 47.1617C194.213 47.1617 202.346 55.295 202.346 65.3276C202.346 75.3603 194.213 83.4933 184.18 83.4933Z" fill="#2C2C2C"/>
<path d="M167.449 80.4802L159.193 68.2495C158.196 66.7716 155.268 61.3886 154.558 60.2406C152.675 57.1879 151.641 53.6879 151.563 50.102C151.485 46.5161 152.365 42.9743 154.113 39.8424C155.861 36.7105 158.414 34.1021 161.507 32.2864C164.6 30.4707 168.122 29.5136 171.709 29.514C171.84 29.514 171.97 29.5215 172.101 29.524C172.232 29.5208 172.362 29.514 172.493 29.514C174.651 29.5115 176.786 29.9454 178.772 30.7897C186.416 33.6516 188.149 41.0212 188.149 49.6646C188.154 53.7407 186.917 57.7217 184.603 61.0771C182.927 69.7041 175.618 80.4802 167.449 80.4802Z" fill="#2C2C2C"/>
<path d="M170.194 95.3979C167.396 95.0454 164.852 93.5956 163.122 91.3676C161.393 89.1395 160.619 86.3156 160.972 83.5172L163.453 60.5762L185.038 62.6528L182.075 86.1755C181.722 88.9739 180.273 91.5177 178.045 93.2472C175.816 94.9768 172.993 95.7504 170.194 95.3979Z" fill="#FFC2B0"/>
<path d="M179.442 77.6615H184.791C186.196 77.6615 187.587 77.3848 188.885 76.8472C190.182 76.3096 191.362 75.5216 192.355 74.5283C193.348 73.5349 194.136 72.3556 194.674 71.0578C195.212 69.7599 195.488 68.3688 195.488 66.964V45.5691C195.488 43.4619 195.073 41.3753 194.267 39.4285C193.46 37.4816 192.279 35.7127 190.789 34.2227C189.298 32.7326 187.53 31.5507 185.583 30.7443C183.636 29.9379 181.549 29.5228 179.442 29.5228C177.335 29.5228 175.248 29.9379 173.301 30.7443C171.355 31.5507 169.586 32.7326 168.096 34.2227C166.606 35.7127 165.424 37.4816 164.617 39.4284C163.811 41.3753 163.396 43.4619 163.396 45.5691V61.6152C163.396 63.7225 163.811 65.809 164.617 67.7559C165.424 69.7027 166.606 71.4716 168.096 72.9616C169.586 74.4517 171.355 75.6336 173.301 76.44C175.248 77.2464 177.335 77.6615 179.442 77.6615Z" fill="#FFC2B0"/>
<path d="M161.394 63.7924L163.826 64.9066L168.282 55.1817L165.851 54.0675C164.562 53.4765 163.09 53.422 161.76 53.916C160.43 54.41 159.351 55.412 158.76 56.7016C158.468 57.3402 158.304 58.0301 158.278 58.732C158.252 59.434 158.364 60.1341 158.609 60.7926C158.853 61.451 159.225 62.0548 159.703 62.5695C160.181 63.0843 160.756 63.4998 161.394 63.7924Z" fill="#FFC2B0"/>
<path d="M173.462 65.426V42.8851H173.481V42.8657L173.546 42.8851H195.544C194.544 39.0457 192.35 35.6298 189.283 33.1382C186.216 30.6467 182.437 29.2104 178.501 29.04V29H171.692V29.0155C166.335 29.1591 161.181 31.1091 157.055 34.5532C152.928 37.9972 150.067 42.7364 148.931 48.0121C145.394 48.9353 142.183 50.8352 139.661 53.4979C137.138 56.1606 135.404 59.4802 134.653 63.0825C133.902 66.6848 134.166 70.4267 135.413 73.8865C136.66 77.3463 138.841 80.3866 141.711 82.6645C144.581 84.9425 148.025 86.3676 151.656 86.7794C155.287 87.1911 158.959 86.5733 162.26 84.9952C165.561 83.4171 168.359 80.9416 170.338 77.8478C172.318 74.7539 173.4 71.1647 173.463 67.4844H173.481V65.4263L173.462 65.426Z" fill="#2C2C2C"/>
<path d="M172.264 52.8417C168.188 52.8417 164.884 49.7919 164.884 46.0297C164.884 42.2675 168.188 39.2174 172.264 39.2174C176.34 39.2174 179.644 42.2675 179.644 46.0297C179.644 49.7919 176.34 52.8417 172.264 52.8417Z" fill="#2C2C2C"/>
<path d="M183.214 77.1473H177.18L182.668 81.459L183.214 77.1473Z" fill="#FF9E82"/>
<path d="M150.433 160.205L148.159 87.0213L140.972 89.0573L125.906 107.698L127.336 165.983C127.427 168.323 128.296 170.534 129.838 172.346C131.38 174.159 133.528 175.495 136.02 176.191L178.383 187.955L172.381 166.789L150.433 160.205Z" fill="#FF7D57"/>
<path d="M125.985 109.419C125.692 106.671 125.805 103.193 126.678 100.566C127.551 97.9387 128.978 95.5205 130.865 93.468C132.753 91.4154 135.06 89.7744 137.636 88.651C140.212 87.5277 142.99 86.9471 145.947 86.9471L145.82 106.673C145.821 107.356 145.863 108.04 145.947 108.719L125.985 109.419Z" fill="#FF7D57"/>
<path d="M209.001 89.291C201.849 89.291 198.672 96.9902 183.823 96.9902C172.413 96.9902 169.854 93.018 163.945 91.1779C160.424 90.0814 157.354 93.2515 157.354 96.939L157.354 128.488C157.354 186.91 209.001 205.057 209.001 205.057C209.001 205.057 260.648 186.912 260.648 128.488L260.648 96.9389C260.648 93.2514 257.558 90.0372 254.071 91.2374C248.654 93.1022 246.637 96.9902 234.179 96.9902C217.791 96.9902 216.152 89.291 209.001 89.291Z" fill="#BAE5FF"/>
<path fill-rule="evenodd" clip-rule="evenodd" d="M210.438 209.664C210.384 209.979 210.269 210.28 210.099 210.55L210.099 210.55C209.755 211.095 209.209 211.482 208.58 211.625C207.952 211.768 207.292 211.655 206.746 211.311L203.018 208.963C203.467 209.307 203.784 209.799 203.91 210.354C204.053 210.983 203.94 211.643 203.596 212.188C203.253 212.734 202.707 213.121 202.078 213.263C201.449 213.406 200.79 213.294 200.244 212.95L181.474 201.13L181.475 201.128L179.228 199.713C178.142 199.029 177.202 198.138 176.46 197.09C175.718 196.043 175.19 194.859 174.906 193.608C174.621 192.356 174.586 191.061 174.802 189.796C174.959 188.88 175.245 187.994 175.65 187.162L175.591 187.171L175.912 186.66C175.993 186.516 176.078 186.374 176.166 186.234C176.277 186.056 176.393 185.882 176.515 185.712C177.379 184.436 178.526 183.377 179.868 182.617C181.263 181.827 182.827 181.384 184.429 181.325L195.352 180.653C196.545 180.58 197.743 180.691 198.903 180.982L209.527 183.647C208.443 187.148 203.407 187.02 202.425 186.961C202.086 186.911 201.729 186.95 201.39 187.092C200.403 187.508 199.939 188.645 200.354 189.632C200.5 189.978 200.734 190.26 201.019 190.462L201.017 190.465L201.555 190.804L201.554 190.806L212.558 197.735C213.104 198.079 213.49 198.625 213.633 199.253C213.776 199.882 213.663 200.542 213.32 201.087C212.976 201.633 212.43 202.02 211.801 202.162C211.173 202.305 210.513 202.193 209.968 201.849L198.964 194.92L198.964 194.92L213.92 204.338C214.465 204.681 214.852 205.228 214.995 205.856C215.138 206.485 215.025 207.145 214.681 207.69C214.338 208.236 213.792 208.622 213.163 208.765C212.534 208.908 211.875 208.795 211.329 208.452L209.348 207.204C209.614 207.374 209.844 207.593 210.026 207.85C210.21 208.11 210.341 208.404 210.412 208.716C210.483 209.027 210.492 209.349 210.438 209.664Z" fill="#FFC2B0"/>
<path d="M175.38 179.097L181.448 182.296L178.384 198.953L170.436 193.704L175.38 179.097Z" fill="#FFC2B0"/>
<path d="M143.909 162.153L147.262 87.2451L139.005 89.5842L126.123 102.997L120.175 166.787C120.176 169.113 121.069 171.278 122.742 173.016C124.416 174.755 127.02 176.828 129.892 178.39L169.691 197.275L178.978 179.248L143.909 162.153Z" fill="#FF7D57"/>
<path fill-rule="evenodd" clip-rule="evenodd" d="M197.393 134.222C197.393 140.656 202.608 145.872 209.042 145.872C215.475 145.872 220.691 140.656 220.691 134.222V125.407C220.691 118.973 215.475 113.758 209.042 113.758C202.608 113.758 197.393 118.973 197.393 125.407V134.222ZM209.042 149.65C200.521 149.65 193.615 142.743 193.615 134.222V125.407C193.615 116.887 200.521 109.98 209.042 109.98C217.562 109.98 224.469 116.887 224.469 125.407V134.222C224.469 142.743 217.562 149.65 209.042 149.65Z" fill="#0059B9"/>
<path fill-rule="evenodd" clip-rule="evenodd" d="M231.494 127.227H186.51V154.281C186.51 154.282 186.51 154.283 186.51 154.285C186.512 163.062 193.629 170.177 202.407 170.177H215.598C224.376 170.177 231.492 163.062 231.494 154.285C231.494 154.283 231.494 154.282 231.494 154.281V127.227Z" fill="#0059B9"/>
<circle cx="209.108" cy="144.084" r="5.35224" fill="white"/>
<rect x="206.901" y="146.291" width="4.09289" height="12.5935" rx="2.04645" fill="white"/>
<circle cx="73" cy="57" r="20" fill="#0059B9"/>
<path fill-rule="evenodd" clip-rule="evenodd" d="M85.0864 48.1464C86.1102 49.1917 86.0927 50.869 85.0474 51.8928L69.3618 67.2546L60.2968 59.6457C59.1761 58.705 59.0302 57.034 59.9708 55.9133C60.9115 54.7927 62.5825 54.6467 63.7032 55.5874L69.0876 60.1069L81.3401 48.1073C82.3854 47.0836 84.0627 47.1011 85.0864 48.1464Z" fill="white"/>
<path d="M293 149C293 143.477 297.477 139 303 139H328C333.523 139 338 143.477 338 149C338 154.523 333.523 159 328 159H303C297.477 159 293 154.523 293 149Z" fill="#0059B9"/>
<path d="M311 167.111C311 164.288 313.288 162 316.111 162H328.889C331.712 162 334 164.288 334 167.111C334 169.934 331.712 172.222 328.889 172.222H316.111C313.288 172.222 311 169.934 311 167.111Z" fill="#0059B9"/>
</g>
<defs>
<clipPath id="clip0_215_4806">
<rect width="375" height="240" fill="white"/>
</clipPath>
</defs>
</svg>
