<svg width="53" height="52" viewBox="0 0 53 52" fill="none" xmlns="http://www.w3.org/2000/svg">
<rect x="0.5" width="52" height="52" rx="9.77444" fill="#282828"/>
<g clip-path="url(#clip0_1325_3348)">
<path d="M29.9124 8.21094V15.7115C32.1162 16.4679 34.029 17.8932 35.3842 19.7885C36.7393 21.6838 37.4693 23.9547 37.4724 26.2847C37.4705 28.6156 36.741 30.8877 35.3857 32.7841C34.0305 34.6805 32.117 36.1066 29.9124 36.8633V44.3639C34.0871 43.5198 37.8418 41.2591 40.541 37.9645C43.2403 34.6699 44.7182 30.5438 44.7246 26.2847C44.719 22.026 43.2412 17.9001 40.5418 14.6062C37.8423 11.3123 34.0871 9.05297 29.9124 8.21094ZM7.84265 26.2847C7.84854 30.5456 9.32762 34.6734 12.0292 37.9684C14.7307 41.2634 18.4885 43.5229 22.6656 44.3639V36.8633C20.461 36.1066 18.5476 34.6805 17.1923 32.7841C15.837 30.8877 15.1076 28.6156 15.1056 26.2847C15.1087 23.9547 15.8387 21.6838 17.1939 19.7885C18.5491 17.8932 20.4619 16.4679 22.6656 15.7115V8.21094C18.4885 9.04983 14.7302 11.308 12.0284 14.6023C9.32665 17.8966 7.84775 22.0242 7.84265 26.2847Z" fill="#CCFD04"/>
<path d="M29.9125 15.7108V26.5108C29.9125 27.4718 29.5307 28.3934 28.8512 29.0729C28.1717 29.7524 27.2501 30.1342 26.2891 30.1342C25.3281 30.1342 24.4065 29.7524 23.727 29.0729C23.0475 28.3934 22.6657 27.4718 22.6657 26.5108V15.7108C23.8303 15.304 25.0555 15.0977 26.2891 15.1006C27.5227 15.0977 28.7479 15.304 29.9125 15.7108Z" fill="#CCFD04"/>
</g>
<defs>
<clipPath id="clip0_1325_3348">
<rect width="36.8711" height="36.1529" fill="white" transform="translate(7.85352 8.21094)"/>
</clipPath>
</defs>
</svg>
