<svg width="21" height="21" viewBox="0 0 21 21" fill="none" xmlns="http://www.w3.org/2000/svg">
<path d="M0.851685 10.2213C0.851685 9.75088 1.23302 9.36954 1.70342 9.36954H18.7381C19.2085 9.36954 19.5899 9.75088 19.5899 10.2213C19.5899 10.6917 19.2085 11.073 18.7381 11.073H1.70342C1.23302 11.073 0.851685 10.6917 0.851685 10.2213Z" fill="white"/>
<path d="M0.851685 3.4074C0.851685 2.937 1.23302 2.55566 1.70342 2.55566H18.7381C19.2085 2.55566 19.5899 2.937 19.5899 3.4074C19.5899 3.8778 19.2085 4.25913 18.7381 4.25913H1.70342C1.23302 4.25913 0.851685 3.8778 0.851685 3.4074Z" fill="white"/>
<path d="M0.851685 17.0352C0.851685 16.5648 1.23302 16.1834 1.70342 16.1834H18.7381C19.2085 16.1834 19.5899 16.5648 19.5899 17.0352C19.5899 17.5056 19.2085 17.8869 18.7381 17.8869H1.70342C1.23302 17.8869 0.851685 17.5056 0.851685 17.0352Z" fill="white"/>
</svg>
