<svg width="20" height="22" viewBox="0 0 20 22" fill="none" xmlns="http://www.w3.org/2000/svg">
<path fill-rule="evenodd" clip-rule="evenodd" d="M9.5 0C8.94771 0 8.5 0.447715 8.5 1V2H7.99998C5.23864 2 2.99999 4.23825 2.99999 6.99975V10C2.99999 10.7377 2.76718 11.5722 2.39739 12.4148C2.03165 13.2482 1.55876 14.0294 1.14142 14.6439C0.381879 15.7624 0.852156 17.5301 2.40564 17.8103C3.42144 17.9935 4.85701 18.2115 6.54656 18.3527C6.54454 18.4015 6.54352 18.4506 6.54352 18.5C6.54352 20.433 8.11052 22 10.0435 22C11.9765 22 13.5435 20.433 13.5435 18.5C13.5435 18.4482 13.5424 18.3966 13.5402 18.3453C15.1921 18.204 16.596 17.9903 17.5943 17.8103C19.1478 17.5301 19.6181 15.7624 18.8586 14.6439C18.4412 14.0294 17.9683 13.2482 17.6026 12.4148C17.2328 11.5722 17 10.7377 17 10V6.99975C17 4.23825 14.7613 2 12 2H11.5V1C11.5 0.447715 11.0523 0 10.5 0H9.5ZM9.99998 18.5C10.5113 18.5 11.0122 18.4898 11.4997 18.4715C11.5076 19.2758 10.8541 19.9565 10.0435 19.9565C9.2347 19.9565 8.58034 19.2778 8.58723 18.4747C9.04732 18.491 9.51907 18.5 9.99998 18.5ZM7.99998 4C6.34305 4 4.99999 5.34298 4.99999 6.99975V10C4.99999 11.1234 4.65547 12.2463 4.22878 13.2186C3.79804 14.2 3.25528 15.0911 2.79599 15.7675C2.78578 15.7825 2.78102 15.7969 2.77941 15.8113C2.77797 15.8242 2.77919 15.8362 2.78167 15.8458C4.3644 16.1303 7.00044 16.5 9.99998 16.5C12.9995 16.5 15.6356 16.1303 17.2183 15.8458C17.2208 15.8362 17.222 15.8242 17.2206 15.8113C17.2189 15.7969 17.2142 15.7825 17.204 15.7675C16.7447 15.0911 16.2019 14.2 15.7712 13.2186C15.3445 12.2463 15 11.1234 15 10V6.99975C15 5.34298 13.6569 4 12 4H7.99998Z" fill="#0F0F0F"/>
</svg>
