<svg width="18" height="20" viewBox="0 0 18 20" fill="none" xmlns="http://www.w3.org/2000/svg">
<path fill-rule="evenodd" clip-rule="evenodd" d="M3.36676 5.11024C3.23889 4.615 3.22402 4.09669 3.32404 3.59384C3.43334 3.04433 3.67648 2.53026 4.03191 2.09716C4.38735 1.66407 4.84411 1.32531 5.36174 1.1109C5.87936 0.896493 6.44188 0.813052 6.99945 0.867969C7.55703 0.922885 8.09246 1.11446 8.55831 1.42574C8.80415 1.59 9.02661 1.78493 9.22072 2.00503C9.40167 1.79984 9.60734 1.61646 9.83375 1.45936C10.2859 1.14565 10.8073 0.946133 11.3533 0.877874C11.8994 0.809614 12.4539 0.874647 12.9693 1.06741C13.4847 1.26017 13.9458 1.57492 14.3131 1.98474C14.6804 2.39456 14.9429 2.88724 15.0782 3.42065C15.2136 3.95406 15.2177 4.51231 15.0902 5.04766C15.0852 5.06858 15.0801 5.08944 15.0747 5.11024H15.1829C16.5941 5.11024 17.7381 6.25424 17.7381 7.66544V8.51718C17.7381 9.62973 17.027 10.5762 16.0346 10.927V17.0345C16.0346 18.4457 14.8906 19.5897 13.4794 19.5897H4.96204C3.55084 19.5897 2.40684 18.4457 2.40684 17.0345V10.927C1.4144 10.5762 0.703369 9.62973 0.703369 8.51718V7.66544C0.703369 6.25424 1.84737 5.11024 3.25857 5.11024H3.36676ZM8.15844 3.46052C8.2896 3.7059 8.3689 3.97982 8.36899 4.25805V5.11024H5.20259C5.13669 4.99705 5.0839 4.87618 5.04559 4.7499C4.96478 4.4835 4.95092 4.20129 5.00523 3.92825C5.05954 3.65522 5.18035 3.39979 5.35695 3.18459C5.53356 2.9694 5.76051 2.80108 6.0177 2.69455C6.2749 2.58802 6.5544 2.54656 6.83144 2.57384C7.10848 2.60113 7.37452 2.69632 7.60599 2.85098C7.83746 3.00564 8.02721 3.215 8.15844 3.46052ZM10.0725 17.8863H13.4794C13.9498 17.8863 14.3311 17.5049 14.3311 17.0345V11.0724H10.0725V17.8863ZM8.36899 11.0724V17.8863H4.96204C4.49164 17.8863 4.11031 17.5049 4.11031 17.0345V11.0724H8.36899ZM10.0725 9.36891H15.1829C15.6533 9.36891 16.0346 8.98758 16.0346 8.51718V7.66544C16.0346 7.19504 15.6533 6.81371 15.1829 6.81371H10.0725V9.36891ZM8.36899 6.81371V9.36891H3.25857C2.78817 9.36891 2.40684 8.98758 2.40684 8.51718V7.66544C2.40684 7.19504 2.78817 6.81371 3.25857 6.81371H8.36899ZM10.0725 5.11024H13.2389C13.322 4.96736 13.3841 4.81256 13.4227 4.65061C13.486 4.38461 13.484 4.10723 13.4167 3.8422C13.3495 3.57716 13.2191 3.33236 13.0366 3.12873C12.8541 2.92511 12.625 2.76872 12.3689 2.67294C12.1128 2.57716 11.8373 2.54485 11.566 2.57876C11.2946 2.61268 11.0356 2.71182 10.8109 2.86769C10.5863 3.02356 10.4027 3.23154 10.276 3.47382C10.1493 3.71586 10.0725 3.98535 10.0725 4.2585V5.11024Z" fill="#0F0F0F"/>
</svg>
