<svg width="40" height="40" viewBox="0 0 40 40" fill="none" xmlns="http://www.w3.org/2000/svg">
<path d="M5.89877 24.9728C8.87217 24.9728 11.2826 22.6854 11.2826 19.8638C11.2826 17.0422 8.87217 14.7549 5.89877 14.7549C2.92537 14.7549 0.514954 17.0422 0.514954 19.8638C0.514954 22.6854 2.92537 24.9728 5.89877 24.9728Z" fill="#FCEA81"/>
<path d="M2.28585 19.8641C2.28585 17.0423 3.90357 14.7549 5.89909 14.7549C2.92555 14.7549 0.514954 17.0423 0.514954 19.8641C0.514954 22.6858 2.92547 24.9732 5.89909 24.9732C3.90357 24.9733 2.28585 22.6859 2.28585 19.8641Z" fill="#EDD97C"/>
<path d="M10.4869 18.6781C9.36037 18.6307 8.46362 17.7488 8.46362 16.6685C8.46362 15.5582 9.41207 14.6572 10.5832 14.6572C10.6885 14.6572 10.7921 14.6641 10.8939 14.6787" fill="#E0B394"/>
<path d="M29.4582 18.6781C30.5847 18.6307 31.4824 17.7488 31.4824 16.6685C31.4824 15.5582 30.533 14.6572 29.3619 14.6572C29.2565 14.6572 29.152 14.665 29.0511 14.6787" fill="#E0B394"/>
<path d="M29.8758 31.298V39.1243H10.0704V31.298C10.0704 28.6996 12.0292 26.5357 14.622 26.0624C14.9673 25.9985 15.3243 25.9658 15.6895 25.9658H24.2567C24.6219 25.9658 24.9789 25.9985 25.3241 26.0624C27.9171 26.5357 29.8758 28.6996 29.8758 31.298Z" fill="#EA8249"/>
<path d="M25.3243 26.0624L24.016 32.9334L19.9732 30.2083L15.9294 32.9334L14.6221 26.0624C14.9674 25.9985 15.3244 25.9658 15.6896 25.9658H24.2567C24.622 25.9658 24.9791 25.9985 25.3243 26.0624Z" fill="#D36F3D"/>
<path d="M23.9264 20.9863V25.7759C23.9264 27.8476 22.1562 29.5275 19.9729 29.5275C17.789 29.5275 16.0195 27.8477 16.0195 25.7759V20.9863H23.9264Z" fill="#E0B394"/>
<path d="M19.1511 25.9658H15.6892C12.5861 25.9658 10.0704 28.353 10.0704 31.2977V39.1241H13.5324V31.2977C13.5325 28.353 16.048 25.9658 19.1511 25.9658Z" fill="#D36F3D"/>
<path d="M16.9067 27.3727L13.1774 24.8015C11.2067 23.4428 10.1406 21.1959 10.3749 18.895L11.0217 12.5431C11.4672 8.16826 15.3413 4.83008 19.973 4.83008C24.6046 4.83008 28.4788 8.16826 28.9243 12.5431L29.5711 18.895C29.8054 21.1959 28.7394 23.4427 26.7686 24.8015L23.0393 27.3727C21.2109 28.6332 18.7351 28.6332 16.9067 27.3727Z" fill="#F7CBA4"/>
<path d="M23.5292 22.1164C23.5292 22.1164 23.4775 22.237 23.3684 22.4276C23.3421 22.4767 23.3112 22.5285 23.2767 22.5844C23.2358 22.6396 23.1886 22.6956 23.1377 22.7586C23.0868 22.8216 23.0287 22.8853 22.9669 22.956C22.9451 22.9828 22.9215 23.0052 22.896 23.0284C22.8869 23.0371 22.8769 23.0457 22.8669 23.0543C22.8315 23.0853 22.7952 23.1181 22.7579 23.1508C22.6834 23.2172 22.6026 23.2827 22.5181 23.3517C22.429 23.4138 22.3337 23.4724 22.2355 23.5362C22.1864 23.5681 22.1356 23.5991 22.0837 23.6302C22.032 23.6595 21.9765 23.6836 21.9202 23.7104C21.8094 23.7638 21.694 23.8156 21.575 23.8673C21.3297 23.9466 21.0745 24.0397 20.8019 24.0785C20.5329 24.138 20.2523 24.1475 19.9725 24.1604C19.6927 24.1475 19.4119 24.1389 19.143 24.0794C18.8705 24.0406 18.6152 23.9475 18.3699 23.8682C18.2509 23.8173 18.1355 23.7656 18.0237 23.7121C17.9683 23.6854 17.9129 23.6613 17.8602 23.6319C17.8093 23.6 17.7585 23.5699 17.7094 23.5379C17.6113 23.4741 17.515 23.4146 17.426 23.3535C17.3414 23.2845 17.2615 23.2181 17.1861 23.1526C17.1489 23.1189 17.1134 23.087 17.078 23.0551C17.0653 23.0439 17.0525 23.0327 17.0398 23.0215C17.018 23.0008 16.9971 22.9809 16.9789 22.9577C16.9199 22.8896 16.8626 22.8266 16.8127 22.7646C16.7636 22.7017 16.7155 22.6464 16.6755 22.5913C16.6392 22.5327 16.6056 22.4792 16.5774 22.43C16.4639 22.2335 16.4166 22.1162 16.4166 22.1162C16.4166 22.1162 16.5511 22.155 16.7582 22.2343C16.8109 22.2533 16.8654 22.2765 16.9263 22.2999C16.9908 22.318 17.0571 22.3413 17.128 22.3637C17.1998 22.3861 17.2715 22.4137 17.3479 22.4395C17.4233 22.4671 17.5087 22.4852 17.5932 22.5093C17.6777 22.5326 17.7621 22.5611 17.8503 22.5861C17.942 22.605 18.0339 22.6275 18.1283 22.649C18.1756 22.6594 18.2219 22.6722 18.2691 22.6843C18.3172 22.6947 18.3673 22.7008 18.4163 22.7102C18.5153 22.7266 18.6143 22.7456 18.7134 22.7671C18.9196 22.7852 19.1231 22.8284 19.3357 22.8361C19.5456 22.862 19.76 22.8551 19.9725 22.8671C20.1861 22.8551 20.4005 22.8628 20.6103 22.8369C20.8229 22.83 21.0264 22.7861 21.2327 22.7679C21.3317 22.7472 21.4307 22.7283 21.5298 22.7119C21.5788 22.7024 21.6288 22.6964 21.6769 22.686C21.7242 22.6731 21.7714 22.661 21.8177 22.6506C21.9122 22.6291 22.004 22.6058 22.0957 22.5877C22.1848 22.5628 22.2693 22.5343 22.3537 22.511C22.4373 22.4868 22.5245 22.4679 22.5972 22.4412C22.6717 22.417 22.7417 22.3903 22.8126 22.3696C22.8825 22.3472 22.9479 22.3248 23.0124 22.3067C23.076 22.2808 23.1323 22.2559 23.186 22.236C23.3975 22.1526 23.5292 22.1164 23.5292 22.1164Z" fill="#F2F2F2"/>
<path d="M22.8963 23.0284C22.8871 23.0371 22.8771 23.0456 22.8672 23.0543C22.8317 23.0854 22.7954 23.1181 22.7581 23.1508C22.6836 23.2172 22.6028 23.2827 22.5183 23.3517C22.4292 23.4138 22.3339 23.4724 22.2357 23.5362C22.1866 23.5681 22.1358 23.5991 22.0839 23.6302C22.0322 23.6595 21.9767 23.6836 21.9205 23.7104C21.8096 23.7638 21.6942 23.8156 21.5752 23.8673C21.3299 23.9466 21.0747 24.0397 20.8021 24.0785C20.5332 24.138 20.2525 24.1475 19.9727 24.1604C19.6929 24.1475 19.4121 24.1389 19.1432 24.0794C18.8707 24.0405 18.6154 23.9475 18.3701 23.8682C18.2511 23.8173 18.1357 23.7655 18.0239 23.7121C17.9685 23.6854 17.9131 23.6613 17.8604 23.6319C17.8095 23.6 17.7587 23.5698 17.7096 23.5379C17.6115 23.4741 17.5152 23.4146 17.4262 23.3534C17.3417 23.2845 17.2617 23.2181 17.1863 23.1526C17.1491 23.1189 17.1136 23.087 17.0782 23.0551C17.0655 23.0439 17.0527 23.0327 17.04 23.0215C17.0691 23.031 17.0982 23.0404 17.1281 23.0499C17.1999 23.0723 17.2716 23.0991 17.348 23.1249C17.4234 23.1534 17.5088 23.1715 17.5933 23.1957C17.6778 23.2189 17.7623 23.2465 17.8504 23.2724C17.9422 23.2905 18.034 23.3138 18.1284 23.3353C18.1757 23.3456 18.222 23.3577 18.2692 23.3698C18.3174 23.3802 18.3674 23.3862 18.4164 23.3957C18.5154 23.4121 18.6145 23.4318 18.7135 23.4525C18.9197 23.4715 19.1233 23.5146 19.3358 23.5215C19.5457 23.5482 19.7601 23.5405 19.9727 23.5534C20.1862 23.5414 20.4006 23.5491 20.6105 23.5224C20.823 23.5155 21.0266 23.4724 21.2328 23.4543C21.3318 23.4337 21.4309 23.4138 21.5299 23.3975C21.579 23.388 21.6289 23.382 21.677 23.3716C21.7243 23.3595 21.7716 23.3474 21.8179 23.3371C21.9124 23.3156 22.0041 23.2923 22.0958 23.2742C22.1849 23.2483 22.2694 23.2199 22.3538 23.1975C22.4374 23.1733 22.5246 23.1535 22.5973 23.1276C22.6719 23.1027 22.7418 23.0768 22.8127 23.0553C22.8408 23.0465 22.869 23.0371 22.8963 23.0284Z" fill="#4D4D4D"/>
<path d="M15.9285 19.1419C15.5522 19.1419 15.2471 18.8523 15.2471 18.4952V17.4611C15.2471 17.104 15.5522 16.8145 15.9285 16.8145C16.3048 16.8145 16.6099 17.104 16.6099 17.4611V18.4952C16.6099 18.8523 16.3048 19.1419 15.9285 19.1419Z" fill="#4D4D4D"/>
<path d="M22.4592 15.8678C22.4592 15.8678 22.461 15.8506 22.4671 15.8211C22.4741 15.7926 22.4812 15.7475 22.4964 15.6965C22.5033 15.6701 22.5121 15.6426 22.5221 15.6123C22.5353 15.5816 22.553 15.5508 22.5718 15.5158C22.5905 15.4807 22.614 15.4459 22.6387 15.4069C22.6636 15.3672 22.6933 15.3371 22.7237 15.2988C22.7546 15.262 22.7893 15.2264 22.8257 15.1881C22.8642 15.1536 22.9059 15.1195 22.9502 15.0853C23.0369 15.0128 23.1429 14.9604 23.2535 14.9021C23.3677 14.8562 23.489 14.8064 23.619 14.7834C23.7476 14.7517 23.8825 14.7442 24.0171 14.7383C24.1516 14.7441 24.2867 14.7509 24.4154 14.7825C24.5454 14.8053 24.6667 14.8553 24.7811 14.9008C24.8917 14.959 24.9978 15.0113 25.0846 15.0839C25.1289 15.1182 25.1707 15.1524 25.2092 15.1868C25.2455 15.2252 25.2802 15.2611 25.3112 15.2977C25.3412 15.3358 25.3724 15.3671 25.3952 15.4052C25.4181 15.4431 25.4402 15.4771 25.4582 15.5115C25.4762 15.546 25.4935 15.5764 25.5066 15.6069C25.5185 15.6388 25.529 15.6677 25.5369 15.695C25.5542 15.7479 25.5613 15.7933 25.568 15.8217C25.5738 15.8512 25.575 15.8679 25.575 15.8679C25.575 15.8679 25.5562 15.8674 25.5244 15.8645C25.4935 15.8607 25.4456 15.8588 25.3926 15.8515C25.3652 15.8488 25.3372 15.8439 25.3064 15.8401C25.2736 15.8387 25.2412 15.8343 25.2061 15.8317C25.1371 15.8248 25.0652 15.8146 24.9861 15.8117C24.9472 15.8093 24.9095 15.8039 24.8701 15.8008C24.8293 15.8003 24.789 15.7983 24.7491 15.7955C24.6707 15.7858 24.5857 15.7915 24.5066 15.7821C24.4235 15.7849 24.3439 15.7752 24.2615 15.7777C24.1805 15.7719 24.0985 15.7781 24.0173 15.7726C23.936 15.7779 23.854 15.7712 23.7728 15.7767C23.6904 15.774 23.6107 15.784 23.5274 15.7808C23.4483 15.7901 23.363 15.7843 23.2846 15.7941C23.2447 15.7969 23.2044 15.7989 23.1636 15.7994C23.1242 15.8025 23.0867 15.8082 23.0476 15.8105C22.9669 15.8146 22.8998 15.8218 22.8325 15.8274C22.7972 15.8299 22.7641 15.8323 22.7335 15.8345C22.7009 15.8401 22.6711 15.8463 22.6427 15.8499C22.5878 15.8591 22.5397 15.8612 22.5092 15.865C22.4773 15.8678 22.4592 15.8678 22.4592 15.8678Z" fill="#666666"/>
<path d="M14.3705 15.8678C14.3705 15.8678 14.3723 15.8506 14.3784 15.8211C14.3854 15.7926 14.3925 15.7475 14.4077 15.6965C14.4146 15.6701 14.4234 15.6426 14.4334 15.6123C14.4466 15.5816 14.4644 15.5508 14.4832 15.5158C14.5018 15.4807 14.5253 15.4459 14.55 15.4069C14.5749 15.3672 14.6046 15.3371 14.635 15.2988C14.6659 15.262 14.7006 15.2264 14.737 15.1881C14.7755 15.1536 14.8172 15.1195 14.8615 15.0853C14.9483 15.0128 15.0543 14.9604 15.1648 14.9021C15.279 14.8562 15.4004 14.8064 15.5303 14.7834C15.6589 14.7517 15.7939 14.7442 15.9284 14.7383C16.063 14.7441 16.198 14.7509 16.3267 14.7825C16.4567 14.8053 16.5781 14.8553 16.6924 14.9008C16.803 14.959 16.9091 15.0113 16.9959 15.0839C17.0402 15.1182 17.082 15.1524 17.1205 15.1868C17.1568 15.2252 17.1915 15.2611 17.2226 15.2977C17.2525 15.3358 17.2837 15.3671 17.3065 15.4052C17.3294 15.4431 17.3516 15.4771 17.3696 15.5115C17.3875 15.546 17.4048 15.5764 17.4179 15.6069C17.4298 15.6388 17.4404 15.6677 17.4482 15.695C17.4655 15.7479 17.4726 15.7933 17.4793 15.8217C17.4851 15.8512 17.4863 15.8679 17.4863 15.8679C17.4863 15.8679 17.4676 15.8674 17.4358 15.8645C17.4048 15.8607 17.3569 15.8588 17.3039 15.8515C17.2765 15.8488 17.2485 15.8439 17.2177 15.8401C17.1849 15.8387 17.1525 15.8343 17.1174 15.8317C17.0484 15.8248 16.9765 15.8146 16.8974 15.8117C16.8585 15.8093 16.8208 15.8039 16.7814 15.8008C16.7406 15.8003 16.7004 15.7983 16.6604 15.7955C16.5821 15.7858 16.497 15.7915 16.4179 15.7821C16.3348 15.7849 16.2552 15.7752 16.1729 15.7777C16.0918 15.7719 16.0098 15.7781 15.9286 15.7726C15.8472 15.7779 15.7653 15.7712 15.6841 15.7767C15.6017 15.774 15.5221 15.784 15.4387 15.7808C15.3596 15.7901 15.2743 15.7843 15.196 15.7941C15.156 15.7969 15.1157 15.7989 15.0749 15.7994C15.0355 15.8025 14.9979 15.8082 14.9589 15.8105C14.8782 15.8146 14.8112 15.8218 14.7439 15.8274C14.7085 15.8299 14.6754 15.8323 14.6448 15.8345C14.6122 15.8401 14.5824 15.8463 14.554 15.8499C14.4991 15.8591 14.451 15.8612 14.4205 15.865C14.3886 15.8678 14.3705 15.8678 14.3705 15.8678Z" fill="#666666"/>
<path d="M24.0173 19.1409C23.641 19.1409 23.3359 18.8514 23.3359 18.4943V17.4601C23.3359 17.103 23.641 16.8135 24.0173 16.8135C24.3936 16.8135 24.6987 17.103 24.6987 17.4601V18.4943C24.6987 18.8514 24.3936 19.1409 24.0173 19.1409Z" fill="#4D4D4D"/>
<path d="M21.0177 16.2969V19.3574C21.0177 19.9049 20.5499 20.3489 19.9729 20.3489C19.396 20.3489 18.9282 19.9049 18.9282 19.3574V16.2969" fill="#E0B394"/>
<path d="M12.6955 20.1466C12.6328 21.1527 12.9781 22.1424 13.6613 22.914L17.559 27.4591C17.7625 27.6892 17.9933 27.8824 18.2431 28.0367C17.7743 27.8816 17.3237 27.6591 16.9067 27.372L13.1773 24.8012C11.2067 23.4425 10.1411 21.1959 10.3755 18.8949L11.0215 12.5428C11.463 8.21062 15.266 4.89493 19.8384 4.83203C17.0221 4.89666 13.833 7.41578 13.6667 10.0987L12.6955 20.1466Z" fill="#E8BA97"/>
<path d="M29.4612 10.2572H28.9216C28.9216 7.91227 27.9205 5.78967 26.3006 4.25252C25.0996 3.11278 23.5588 2.29552 21.8353 1.94979H21.8351V1.17865C21.8351 0.859937 21.5628 0.601562 21.227 0.601562H18.7185C18.3827 0.601562 18.1104 0.859937 18.1104 1.17865V1.94987C14.0622 2.76291 11.0243 6.1734 11.0243 10.2571H10.4842C10.3338 10.2571 10.2043 10.3579 10.1746 10.4978L9.75486 12.4849C9.71569 12.6704 9.86515 12.8434 10.0645 12.8434H14.5217L15.3053 14.9987H24.6403L25.4238 12.8434H29.8811C30.0804 12.8434 30.2299 12.6703 30.1907 12.4849L29.771 10.4978C29.7412 10.3579 29.6117 10.2572 29.4612 10.2572Z" fill="#F9C573"/>
<path d="M13.9463 10.2572C13.9463 6.1734 15.9922 2.76299 18.7184 1.94994V0.601562C18.3825 0.601562 18.1103 0.859937 18.1103 1.17865V1.94987C14.0621 2.76291 11.0242 6.1734 11.0242 10.2571H10.4841C10.3337 10.2571 10.2041 10.3579 10.1745 10.4978L9.75474 12.4849C9.71557 12.6704 9.86503 12.8434 10.0643 12.8434H14.205L14.573 10.257H13.9463V10.2572Z" fill="#E2AF66"/>
<path d="M19.9724 10.2575C21.8289 10.2575 23.3339 8.82942 23.3339 7.06774C23.3339 5.30605 21.8289 3.87793 19.9724 3.87793C18.116 3.87793 16.611 5.30605 16.611 7.06774C16.611 8.82942 18.116 10.2575 19.9724 10.2575Z" fill="#FCE8CA"/>
<path d="M19.9727 10.7334C17.8437 10.7334 16.1116 9.08974 16.1116 7.06932C16.1116 5.04889 17.8436 3.40527 19.9727 3.40527C22.1019 3.40527 23.8339 5.04889 23.8339 7.06932C23.8339 9.08974 22.1018 10.7334 19.9727 10.7334ZM19.9727 4.35368C18.3948 4.35368 17.111 5.57196 17.111 7.06932C17.111 8.56667 18.3948 9.78496 19.9727 9.78496C21.5507 9.78496 22.8345 8.56667 22.8345 7.06932C22.8345 5.57196 21.5507 4.35368 19.9727 4.35368Z" fill="#EA8249"/>
<path d="M20.7468 7.33343C20.6674 7.2445 20.5834 7.15978 20.5006 7.07393C20.4184 6.98755 20.3307 6.90637 20.246 6.82225C20.1616 6.74054 20.0738 6.66214 19.9876 6.58201C20.0146 6.55086 20.0431 6.52114 20.0698 6.48969C20.1846 6.352 20.2971 6.21228 20.4045 6.06752C20.5123 5.9232 20.615 5.77408 20.7132 5.62066C20.7618 5.54347 20.8093 5.46529 20.8546 5.38501C20.8997 5.30458 20.9429 5.22219 20.9828 5.13672C20.8926 5.17449 20.8059 5.21542 20.7211 5.25831C20.6366 5.30142 20.5541 5.34641 20.4728 5.39254C20.311 5.48576 20.154 5.58312 20.0019 5.68552C19.8493 5.78732 19.7021 5.89416 19.557 6.00311C19.4131 6.11319 19.2724 6.2262 19.1345 6.34192L18.8433 6.58607L19.1345 6.89064C19.2168 6.97687 19.2996 7.06272 19.3834 7.14759C19.4693 7.2305 19.5533 7.3153 19.6407 7.39663C19.7293 7.47699 19.8148 7.5602 19.9059 7.63823C19.9072 7.63943 19.9086 7.64056 19.91 7.64176C19.8889 7.66667 19.8665 7.69029 19.8457 7.71543C19.7379 7.84604 19.6327 7.97907 19.5325 8.11691C19.431 8.25347 19.3355 8.39582 19.2436 8.54141C19.1978 8.61447 19.1534 8.68881 19.1109 8.76487C19.0684 8.84094 19.0281 8.91919 18.9906 9.00008C19.0759 8.96449 19.1583 8.92627 19.2385 8.88594C19.3187 8.84561 19.397 8.8034 19.474 8.76006C19.6274 8.67271 19.7773 8.58219 19.9212 8.48581C20.0665 8.39078 20.2067 8.29086 20.3443 8.18861C20.4815 8.08591 20.6164 7.98102 20.7469 7.87192L21.0221 7.64192L20.7468 7.33343Z" fill="#EA8249"/>
<path d="M34.5128 7.3902C34.3538 7.21188 34.1854 7.04237 34.0196 6.87045C33.855 6.69732 33.6793 6.53472 33.5096 6.36649C33.3405 6.20284 33.1644 6.04581 32.9921 5.88525C33.0462 5.82295 33.1032 5.76336 33.1568 5.70031C33.3867 5.42455 33.6121 5.14459 33.8271 4.85469C34.043 4.56554 34.2488 4.26691 34.4453 3.95955C34.5427 3.80501 34.6379 3.64836 34.7288 3.48765C34.8193 3.32648 34.9057 3.16148 34.9854 2.99023C34.8049 3.06593 34.631 3.14794 34.4613 3.23379C34.292 3.32009 34.1268 3.41038 33.964 3.50277C33.6401 3.68944 33.3255 3.88469 33.0207 4.08942C32.7152 4.29347 32.4202 4.50738 32.1296 4.72557C31.8413 4.94603 31.5596 5.17258 31.2833 5.40424L30.7 5.8933L31.2833 6.5035C31.4483 6.67617 31.6141 6.8481 31.7819 7.01807C31.9539 7.1842 32.122 7.35394 32.2972 7.51698C32.4746 7.67792 32.6459 7.84465 32.8282 8.00093C32.8309 8.00334 32.8337 8.00559 32.8363 8.008C32.7942 8.05789 32.7492 8.10521 32.7075 8.15555C32.4916 8.41708 32.2809 8.68366 32.0802 8.95971C31.877 9.23336 31.6856 9.51837 31.5015 9.80993C31.4098 9.95619 31.3209 10.1052 31.2357 10.2575C31.1504 10.4098 31.0699 10.5667 30.9947 10.7286C31.1654 10.6572 31.3306 10.5808 31.4911 10.5C31.6517 10.4191 31.8087 10.3348 31.9628 10.2478C32.2702 10.0729 32.5705 9.89141 32.8588 9.6985C33.1498 9.50814 33.4306 9.30815 33.7062 9.10327C33.981 8.89756 34.2512 8.68742 34.5125 8.46892L35.0638 8.00823L34.5128 7.3902Z" fill="#FCEA81"/>
<path d="M26.8015 35.5084C26.7151 35.4116 26.6236 35.3194 26.5336 35.226C26.4442 35.132 26.3487 35.0437 26.2566 34.9522C26.1647 34.8634 26.069 34.778 25.9755 34.6908C26.0049 34.657 26.0359 34.6246 26.065 34.5904C26.19 34.4406 26.3124 34.2884 26.4291 34.131C26.5464 33.9739 26.6582 33.8117 26.765 33.6448C26.8178 33.5608 26.8695 33.4757 26.9189 33.3884C26.9681 33.3008 27.015 33.2112 27.0584 33.1182C26.9604 33.1593 26.8659 33.2039 26.7737 33.2505C26.6817 33.2974 26.5921 33.3464 26.5035 33.3966C26.3276 33.498 26.1566 33.6041 25.9911 33.7153C25.8252 33.8263 25.6648 33.9423 25.507 34.0608C25.3504 34.1806 25.1974 34.3037 25.0472 34.4296L24.7303 34.6953L25.0472 35.0268C25.1369 35.1206 25.2269 35.214 25.3181 35.3063C25.4115 35.3966 25.5029 35.4888 25.598 35.5773C25.6944 35.6647 25.7874 35.7553 25.8864 35.8402C25.8879 35.8415 25.8895 35.8427 25.8909 35.844C25.868 35.8711 25.8436 35.8968 25.821 35.9242C25.7037 36.0662 25.5892 36.2111 25.4802 36.361C25.3698 36.5096 25.2659 36.6645 25.1657 36.8229C25.1159 36.9024 25.0677 36.9833 25.0213 37.066C24.975 37.1488 24.9313 37.234 24.8904 37.3219C24.9831 37.2831 25.0729 37.2416 25.1601 37.1977C25.2473 37.1537 25.3325 37.1079 25.4163 37.0607C25.5832 36.9656 25.7464 36.8672 25.9029 36.7623C26.061 36.6588 26.2136 36.5502 26.3633 36.4389C26.5126 36.3272 26.6593 36.2129 26.8013 36.0943L27.1007 35.844L26.8015 35.5084Z" fill="#FCEA81"/>
<path d="M20.6547 29.9512H19.292V39.1259H20.6547V29.9512Z" fill="#D36F3D"/>
<path d="M5.87123 13.1976C5.62029 13.1976 5.41699 13.0046 5.41699 12.7666V11.0424C5.41699 10.8043 5.62029 10.6113 5.87123 10.6113C6.12218 10.6113 6.32547 10.8043 6.32547 11.0424V12.7666C6.32547 13.0046 6.1221 13.1976 5.87123 13.1976Z" fill="#FCEA81"/>
<path d="M1.2724 14.4038C1.11359 14.4038 0.959533 14.3246 0.876122 14.1839L0.0584247 12.8046C-0.0645511 12.597 0.0129133 12.3343 0.23159 12.2175C0.450108 12.1008 0.727061 12.1744 0.850195 12.3819L1.66781 13.7613C1.79079 13.9688 1.71332 14.2316 1.49465 14.3483C1.42416 14.386 1.34781 14.4038 1.2724 14.4038Z" fill="#FCEA81"/>
<path d="M38.1514 13.4185L37.042 15.1324V25.94H35.0879V15.1324L33.9786 13.4185L35.0225 9.78809H37.1084L38.1514 13.4185Z" fill="#CCCCCC"/>
<path d="M7.54107 19.6953H6.72337C6.72337 20.141 6.34128 20.5035 5.87166 20.5035C5.40204 20.5035 5.01995 20.141 5.01995 19.6953H4.20233C4.20233 20.4348 4.73983 21.0557 5.46285 21.2294V25.4908H6.28047V21.2294C7.00358 21.0557 7.54107 20.4348 7.54107 19.6953Z" fill="white"/>
<path d="M38.1514 13.4185L37.0421 15.1324V25.94H35.5422V15.1324L34.4329 13.4185L35.4768 9.78809H37.1084L38.1514 13.4185Z" fill="#E6E6E6"/>
<path d="M36.6136 39.1243H35.5171C34.3161 39.1243 33.3426 38.2004 33.3426 37.0608V28.003C33.3426 26.8633 34.3162 25.9395 35.5171 25.9395H36.6136C37.8147 25.9395 38.7882 26.8634 38.7882 28.003V37.0608C38.7882 38.2004 37.8146 39.1243 36.6136 39.1243Z" fill="#5D9EBA"/>
<path d="M36.1129 37.0598V28.002C36.1129 27.1438 36.665 26.4082 37.4505 26.0971C37.1928 25.995 36.9101 25.9385 36.6135 25.9385H35.517C34.316 25.9385 33.3424 26.8624 33.3424 28.002V37.0598C33.3424 38.1995 34.3161 39.1233 35.517 39.1233H36.6135C36.9101 39.1233 37.1929 39.0668 37.4505 38.9647C36.665 38.6535 36.1129 37.9179 36.1129 37.0598Z" fill="#508DA3"/>
<path d="M39.2796 25.9386C39.2796 26.2964 38.9743 26.5852 38.5982 26.5852H33.5324C33.1554 26.5852 32.851 26.2964 32.851 25.9386C32.851 25.5817 33.1554 25.292 33.5324 25.292H38.5982C38.9743 25.292 39.2796 25.5817 39.2796 25.9386Z" fill="#508DA3"/>
<path d="M39.2796 25.9406C39.2796 26.2983 38.9744 26.5872 38.5982 26.5872H35.8609C35.4848 26.5872 35.1795 26.2983 35.1795 25.9406C35.1795 25.5836 35.4848 25.2939 35.8609 25.2939H38.5982C38.9744 25.2939 39.2796 25.5836 39.2796 25.9406Z" fill="#5D9EBA"/>
<path d="M36.0654 36.7142C35.6891 36.7142 35.384 36.4247 35.384 36.0676V28.9982C35.384 28.6411 35.689 28.3516 36.0654 28.3516C36.4419 28.3516 36.7468 28.6411 36.7468 28.9982V36.0676C36.7468 36.4247 36.4418 36.7142 36.0654 36.7142Z" fill="#5D9EBA"/>
<path d="M36.7467 28.9975V36.0669C36.7467 36.4092 36.4669 36.6894 36.1125 36.7109V28.3535C36.4669 28.3759 36.7467 28.6552 36.7467 28.9975Z" fill="#508DA3"/>
<path d="M5.17846 34.6997C4.9892 34.6807 4.79986 34.6693 4.61068 34.654L4.32675 34.6333L4.06517 34.6178L4.35109 34.1835L4.77639 33.5117L5.189 32.8325L5.7908 31.8421L4.63343 31.8911L4.06565 31.9151C3.87639 31.9217 3.68705 31.9351 3.49787 31.9457C3.39614 31.9512 3.29434 31.9575 3.19261 31.9642C3.23677 31.8731 3.27975 31.7811 3.32304 31.6896C3.38028 31.5697 3.43587 31.4489 3.48986 31.3271C3.59999 31.0848 3.70529 30.8397 3.8059 30.5918C3.83159 30.5302 3.85625 30.4679 3.88051 30.4054C3.90462 30.3428 3.93023 30.2811 3.95267 30.2176C3.9981 30.0908 4.0471 29.9661 4.08833 29.8369C3.98573 29.9304 3.8909 30.0285 3.7925 30.1244C3.74303 30.1723 3.69672 30.2219 3.64883 30.2706C3.6011 30.3195 3.55377 30.3686 3.50762 30.4183C3.32066 30.6159 3.13822 30.8162 2.96061 31.0193C2.87078 31.1203 2.78253 31.2221 2.69587 31.3249C2.60881 31.4276 2.52041 31.5293 2.43604 31.6334L2.18034 31.9442L1.9305 32.2585L1.42322 32.8968L2.36215 32.99C2.55141 33.0088 2.74075 33.0209 2.92993 33.0357C3.11221 33.0505 3.29442 33.0619 3.47678 33.0722L3.1896 33.508L2.76406 34.1796C2.69373 34.292 2.62618 34.4057 2.55704 34.5188L2.35073 34.8584L1.74846 35.85L2.90733 35.8015L3.47511 35.7778C3.66437 35.7711 3.85371 35.7588 4.04289 35.7476L4.32683 35.7309L4.34514 35.7296C4.30153 35.8198 4.2588 35.9105 4.21622 36.0013C4.15929 36.1213 4.10339 36.242 4.04963 36.3638C3.9399 36.6063 3.83429 36.8514 3.73399 37.0994C3.70838 37.1611 3.68364 37.2234 3.65962 37.2858C3.63575 37.3485 3.60998 37.4101 3.5877 37.4738C3.54243 37.6007 3.49359 37.7255 3.45252 37.8547C3.55527 37.7613 3.65018 37.6633 3.74889 37.5675C3.79853 37.5197 3.84467 37.47 3.89272 37.4213C3.94053 37.3725 3.98779 37.3235 4.03409 37.2737C4.22153 37.0763 4.40366 36.8759 4.58158 36.673C4.67165 36.5723 4.75958 36.4702 4.8464 36.3675C4.9337 36.2651 5.02186 36.1631 5.10631 36.059L5.36201 35.7482L5.61201 35.4341L6.12127 34.7943L5.17846 34.6997Z" fill="#FCEA81"/>
<path d="M8.34707 24.3672V25.7828C8.34707 26.4311 8.06996 27.019 7.62206 27.4441C7.17416 27.8691 6.55548 28.1321 5.87138 28.1321C4.50406 28.1321 3.39569 27.0803 3.39569 25.7828V24.3672H8.34707Z" fill="#999999"/>
<path d="M4.39504 25.7828V24.3672H3.39569V25.7828C3.39569 27.0803 4.50406 28.1321 5.87138 28.1321C6.04264 28.1321 6.20978 28.1156 6.37113 28.0842C5.24326 27.8648 4.39504 26.9178 4.39504 25.7828Z" fill="#808080"/>
<path d="M17.8165 34.9307C18.1803 34.9307 18.4752 34.6509 18.4752 34.3057C18.4752 33.9605 18.1803 33.6807 17.8165 33.6807C17.4528 33.6807 17.1579 33.9605 17.1579 34.3057C17.1579 34.6509 17.4528 34.9307 17.8165 34.9307Z" fill="#808080"/>
<path d="M17.8165 37.4961C18.1803 37.4961 18.4752 37.2163 18.4752 36.8711C18.4752 36.5259 18.1803 36.2461 17.8165 36.2461C17.4528 36.2461 17.1579 36.5259 17.1579 36.8711C17.1579 37.2163 17.4528 37.4961 17.8165 37.4961Z" fill="#808080"/>
</svg>
