<svg width="16" height="16" viewBox="0 0 16 16" fill="none" xmlns="http://www.w3.org/2000/svg">
<g opacity="0.3">
<path d="M14.4579 7.75252C14.4579 11.5714 11.3621 14.6672 7.54329 14.6672C3.72445 14.6672 0.628662 11.5714 0.628662 7.75252C0.628662 3.93368 3.72445 0.837891 7.54329 0.837891C11.3621 0.837891 14.4579 3.93368 14.4579 7.75252ZM1.89016 7.75252C1.89016 10.8747 4.42116 13.4057 7.54329 13.4057C10.6654 13.4057 13.1964 10.8747 13.1964 7.75252C13.1964 4.63038 10.6654 2.09939 7.54329 2.09939C4.42116 2.09939 1.89016 4.63038 1.89016 7.75252Z" fill="#0F0F0F"/>
<path d="M7.54329 3.3523C7.19613 3.3523 6.91469 3.63374 6.91469 3.9809V8.04587C6.91469 8.04587 6.91469 8.20976 6.99436 8.33306C7.04763 8.4376 7.13075 8.52844 7.23993 8.59147L10.1439 10.2681C10.4446 10.4417 10.829 10.3387 11.0026 10.038C11.1762 9.73736 11.0732 9.35291 10.7725 9.17933L8.1719 7.67785V3.98091C8.1719 3.63374 7.89046 3.3523 7.54329 3.3523Z" fill="#0F0F0F"/>
</g>
</svg>
