<svg width="20" height="20" viewBox="0 0 20 20" fill="none" xmlns="http://www.w3.org/2000/svg">
<path fill-rule="evenodd" clip-rule="evenodd" d="M5.2707 1.29173C5.71838 1.0679 6.25247 0.804688 7.23903 0.804688C8.22557 0.804688 8.75965 1.06788 9.20735 1.2917L9.22017 1.29812C9.57054 1.47333 9.84172 1.60894 10.4563 1.60896C11.4514 1.60899 12.0407 1.23798 12.2372 1.09032C12.543 0.860446 12.9044 0.879827 13.154 0.995234C13.4067 1.11213 13.6736 1.39103 13.6736 1.80324L13.6736 10.4566H16.0866C17.4187 10.4566 18.4995 11.5355 18.4995 12.8687V15.2825C18.4995 16.0265 18.3112 16.638 17.9874 17.1237C17.667 17.6043 17.2455 17.9147 16.8484 18.1133C16.4546 18.3102 16.0704 18.4047 15.7915 18.4512C15.624 18.4791 15.4525 18.5001 15.2823 18.4998H4.02174C3.27775 18.4998 2.66629 18.3115 2.18058 17.9877C1.69991 17.6672 1.3895 17.2457 1.19098 16.8487C0.994035 16.4548 0.899572 16.0707 0.85309 15.7918C0.829531 15.6504 0.81744 15.5309 0.8112 15.4435C0.806001 15.3707 0.804465 15.3277 0.804443 15.2825V1.80323C0.804443 1.39103 1.07135 1.11213 1.32408 0.995231C1.5736 0.879818 1.93501 0.860437 2.24088 1.09029C2.43737 1.23796 3.0267 1.60896 4.02174 1.60896C4.63636 1.60896 4.90752 1.47335 5.25788 1.29814L5.2707 1.29173ZM2.41576 15.2825L2.41309 2.96325C2.84757 3.1097 3.38417 3.2176 4.02174 3.2176C5.00829 3.2176 5.54238 2.95439 5.99007 2.73056L6.00288 2.72416C6.35324 2.54894 6.62441 2.41333 7.23903 2.41333C7.85367 2.41333 8.12483 2.54894 8.4752 2.72415L8.488 2.73055C8.93567 2.95437 9.46975 3.21757 10.4563 3.2176C11.0939 3.21763 11.6305 3.10972 12.065 2.96328V15.2825C12.065 15.9123 12.1999 16.4472 12.4378 16.8912H4.02174C3.55924 16.8912 3.26584 16.7778 3.0729 16.6492C2.87492 16.5172 2.7329 16.3355 2.6298 16.1293C2.52512 15.9199 2.46877 15.7008 2.43985 15.5273C2.42625 15.4457 2.41801 15.3649 2.41576 15.2825ZM15.5271 16.8644C15.7006 16.8355 15.9197 16.7791 16.129 16.6744C16.3352 16.5713 16.517 16.4293 16.649 16.2313C16.7776 16.0384 16.8909 15.745 16.8909 15.2825V12.8687C16.8909 12.425 16.5313 12.0652 16.0866 12.0652H13.6736L13.6736 15.2825C13.6736 15.745 13.7869 16.0384 13.9156 16.2313C14.0475 16.4293 14.2293 16.5713 14.4355 16.6744C14.6448 16.7791 14.8639 16.8355 15.0375 16.8644C15.1223 16.8785 15.1913 16.8853 15.2359 16.8885C15.3329 16.8954 15.4316 16.8803 15.5271 16.8644Z" fill="#0F0F0F"/>
<path d="M4.02174 6.43495C4.02174 5.99073 4.38184 5.63063 4.82606 5.63063H9.652C10.0962 5.63063 10.4563 5.99073 10.4563 6.43495C10.4563 6.87916 10.0962 7.23927 9.652 7.23927H4.82606C4.38184 7.23927 4.02174 6.87916 4.02174 6.43495Z" fill="#0F0F0F"/>
<path d="M4.02174 9.65224C4.02174 9.20803 4.38184 8.84792 4.82606 8.84792H9.652C10.0962 8.84792 10.4563 9.20803 10.4563 9.65224C10.4563 10.0965 10.0962 10.4566 9.652 10.4566H4.82606C4.38184 10.4566 4.02174 10.0965 4.02174 9.65224Z" fill="#0F0F0F"/>
<path d="M4.02174 12.8695C4.02174 12.4253 4.38184 12.0652 4.82606 12.0652H9.652C10.0962 12.0652 10.4563 12.4253 10.4563 12.8695C10.4563 13.3138 10.0962 13.6739 9.652 13.6739H4.82606C4.38184 13.6739 4.02174 13.3138 4.02174 12.8695Z" fill="#0F0F0F"/>
</svg>
